<svg id="Layer_1" data-name="Layer 1" xmlns="http://www.w3.org/2000/svg" viewBox="0 0 199 94.64"><defs><style>.cls-1{fill:#c00;}</style></defs><title>cnn-</title><path class="cls-1" d="M82.42.54c-8.24.59-15.23,7.52-15.23,17.3V64.35a3,3,0,0,1-3.07,3.13H49.6c-31.45,0-28.66-40.16-1.88-40.21H63.78V15.59H47.13c-10.66,0-18.57,4-23.91,9.91a32.89,32.89,0,0,0-8,21.9,32.08,32.08,0,0,0,8.09,21.85c5.46,5.92,13.72,9.91,25,9.91h27.4A3.38,3.38,0,0,0,79,75.8V19.07a5.87,5.87,0,0,1,3.78-5.85,5.55,5.55,0,0,1,6.14,2.31l.06.06C96.79,28.33,127.73,78,127.78,78.06a2.32,2.32,0,0,0,2.59,1.18c.74-.25,1.48-1,1.47-3V19.07a5.87,5.87,0,0,1,3.78-5.85,5.49,5.49,0,0,1,6.09,2.31v.06h.11c7.79,12.74,38.73,62.38,38.78,62.47a2.29,2.29,0,0,0,2.59,1.18c.77-.25,1.55-1,1.53-3V.84H173v44s-7-12-19-32.59C142.22-7.91,120,.45,120,17.83v27s-6.88-12-18.89-32.59C96,3.45,88.83.07,82.42.54ZM49.19.84c-65.38,0-64.75,93.17.89,93.22H75.75c11,0,18.08-6.53,18.07-18.59V51.85S108.24,75.68,113.9,85c9.6,15.88,32.82,12.74,32.76-7.08V51.85S161,75.68,166.68,85c9.6,15.88,32.89,12.74,32.82-7.08V.83H187.75V76.28c0,2.89-1.51,5-3.6,5.72a5.34,5.34,0,0,1-6-2.24h-.06v-.11s-31-49.5-38.85-62.4c0,0,0,0-.06,0s0-.06,0-.06a2.44,2.44,0,0,0-2.72-1.06c-.89.27-1.72,1-1.71,3V76.21c0,2.88-1.47,5.15-3.54,5.85a5.27,5.27,0,0,1-5.9-2.31v-.06h-.06s-31-49.6-38.85-62.47A2.46,2.46,0,0,0,83.67,16c-.89.27-1.72,1-1.71,3V75.79a6.34,6.34,0,0,1-6.26,6.32H48.31c-12,0-21.14-4.33-27.16-10.86a35.06,35.06,0,0,1-9-23.86A36,36,0,0,1,21,23.49C26.89,17,35.71,12.64,47.11,12.63H63.76V.82H49.18Z" transform="translate(-0.5 -0.5)"/></svg>