<?xml version="1.0" encoding="utf-8"?>
<!-- Generator: Adobe Illustrator 21.1.0, SVG Export Plug-In . SVG Version: 6.00 Build 0)  -->
<svg version="1.1" id="Layer_1" xmlns="http://www.w3.org/2000/svg" xmlns:xlink="http://www.w3.org/1999/xlink" x="0px" y="0px"
	 viewBox="0 0 783 68.2" style="enable-background:new 0 0 783 68.2;" xml:space="preserve">
<g>
	<path d="M21.7,61.5c0,3,0.9,3.6,2.8,4.1l3,0.7v1.4H7.4v-1.4l2.5-0.6c2-0.5,2.8-1.5,2.8-4.2V2.4h-2.1c-6,0-8.5,9.9-9.2,20.3H0V0.5
		h34.4v22.2H33c-0.7-10.4-3.1-20.3-9.2-20.3h-2.1V61.5z M36.6,66.3l2.1-0.6c2-0.5,2.8-1.5,2.8-4.2v-55c0-2.7-0.9-3.6-2.8-4.1
		l-2.1-0.6V0.5h19v1.4l-2.2,0.6c-1.9,0.5-2.9,1.3-2.9,4v25.7h14.7V6.4c0-2.7-1.1-3.5-2.9-4L60,1.9V0.5h19v1.4l-2.1,0.6
		C74.9,2.9,74,3.8,74,6.5v54.9c0,2.7,0.9,3.8,2.8,4.3l2.1,0.6v1.4H60v-1.4l2.2-0.5c1.9-0.5,2.9-1.6,2.9-4.3V34.3H50.4v27.2
		c0,2.7,1.1,3.8,2.9,4.3l2.2,0.5v1.4h-19V66.3z M95,65.7h6.7c8.8,0,10.4-9.9,11.6-20.3h1.5v22.2H81.1v-1.4l2.1-0.6
		c2-0.5,2.8-1.5,2.8-4.2V6.6c0-2.7-0.9-3.7-2.8-4.2l-2.1-0.6V0.5h32.7v22.2h-1.5c-1.1-10.4-3.1-20.3-10.6-20.3H95v29.4l3.1-0.1
		c4.2-0.3,5.8-3.9,6.8-12.4h1.5v27.1h-1.5c-0.9-10.6-2.5-12.3-6.9-12.6l-3-0.1L95,65.7L95,65.7z M135.7,9.5c-1.3-5.8-2-6.6-3.9-7.1
		l-1.9-0.5V0.5h18.2v1.4l-1.5,0.3c-3.1,0.7-2.8,3.8-2,8l7.7,38.2l5.7-30.4l-2-10.4c-0.8-3.7-1.1-4.9-3-5.4l-1.3-0.3V0.5h17.8v1.4
		l-2.1,0.4c-3.2,0.6-2.7,4.1-2,7.9l7.4,38.2l7.3-36.2c1.4-7.5,0.7-9.4-2.2-9.9l-2-0.4V0.5h13.4v1.4l-1.9,0.5c-2.3,0.6-2.9,2.4-4.3,9
		l-11.9,56.8h-2.5l-9.2-44.3l-8.3,44.3H148L135.7,9.5z M231,65.7h3.9c8.3,0,10.7-9.9,11.7-20.3h1.5v22.2h-49.8v-1.4l2-0.4
		c4.2-0.8,4.2-1.9,3.1-7.8l-1.9-8.8h-12l-1.3,6.6c-1.5,7.5-0.7,9.4,2.2,9.9l2,0.4v1.4h-13.6v-1.4l1.7-0.5c2.6-0.8,3.3-2.3,4.7-9
		l11.9-56.8h2.9l12.5,58.6c1.3,6,1.9,7.3,5.4,7.3c3,0,4.1-1.6,4.1-4.5v-55c0-2.7-0.9-3.6-2.8-4.1l-2.1-0.6V0.5h19.3V2l-2.6,0.6
		c-1.9,0.4-2.8,1.3-2.8,4L231,65.7L231,65.7z M190,47.1h11.1l-5.7-27.7L190,47.1z M264.1,65.7h3.9c8.3,0,10.7-9.9,11.7-20.3h1.5
		v22.2h-30.9v-1.4l2.1-0.6c2-0.5,2.8-1.5,2.8-4.2v-55c0-2.7-0.9-3.6-2.8-4.1l-2.1-0.6V0.5h19.3V2l-2.6,0.6c-2,0.4-2.8,1.3-2.8,4
		L264.1,65.7L264.1,65.7z M313,68.1c-5.7,0-7.6-3.9-9.5-3.9c-1.1,0-2.3,0.3-3.3,3.5H299V45.5h1.5c1.2,12.6,5.9,20.5,12.4,20.5
		c4.4,0,7.4-4,7.4-11.2c0-15.2-21.8-21.8-21.8-38.6c0-9.1,4.7-16,13-16c5.4,0,6.5,3.5,8.8,3.5c1.3,0,2.1-1,2.6-3.1h1.2v22.2h-1.5
		c-1.2-11.2-4.2-20.5-11.2-20.5c-4.9,0-5.9,4.9-5.9,8.2c0,14.5,21.8,19.5,21.8,39.8C327.3,60.6,321.7,68.1,313,68.1z M348.9,61.5
		c0,2.7,0.9,3.7,2.8,4.2l2.5,0.6v1.4h-19.6v-1.4l2.5-0.6c2-0.5,2.8-1.5,2.8-4.2V2.4h-2.1c-6,0-8.5,9.9-9.2,20.3h-1.5V0.5h34.4v22.2
		h-1.5c-0.7-10.4-3.1-20.3-9.2-20.3h-2.1L348.9,61.5L348.9,61.5z M363.8,66.3l2.1-0.6c2-0.5,2.8-1.5,2.8-4.2v-55
		c0-2.7-0.9-3.6-2.8-4.1l-2.1-0.6V0.5h18.6c8.3,0,16,5.3,16,16.3c0,8.5-4,14.4-12.1,16.6c8.9,1.7,8.9,5.9,9.8,17.1l0.6,8.6
		c0.3,4.8,0.5,5.9,1.9,5.9c1.5,0,2-3.3,2-6.5v-1.7h1.7v2.2c0,5.4-1.2,9.2-6.7,9.2c-5.5,0-8-3.1-8.4-14.3l-0.5-12.5
		c-0.2-6-1.7-6.8-4.5-6.8h-4.6v27.1c0,2.7,0.9,3.8,2.8,4.3l2.1,0.5v1.4h-18.7L363.8,66.3L363.8,66.3z M377.5,32.5h3.2
		c5.5,0,8.2-1.5,8.2-14.4s-3.6-15.6-7.5-15.6h-3.9L377.5,32.5L377.5,32.5z M416.7,65.7h6.7c8.8,0,10.4-9.9,11.6-20.3h1.5v22.2h-33.6
		v-1.4l2.1-0.6c2-0.5,2.8-1.5,2.8-4.2V6.6c0-2.7-0.9-3.7-2.8-4.2l-2.1-0.6V0.5h32.7v22.2H434c-1.1-10.4-3.1-20.3-10.6-20.3h-6.7
		v29.4l3.1-0.1c4.2-0.3,5.8-3.9,6.8-12.4h1.5v27.1h-1.5c-0.9-10.6-2.5-12.3-6.9-12.6l-3-0.1V65.7z M452.8,65.7h6.7
		c8.8,0,10.4-9.9,11.6-20.3h1.5v22.2H439v-1.4l2.1-0.6c2-0.5,2.8-1.5,2.8-4.2V6.6c0-2.7-0.9-3.7-2.8-4.2L439,1.9V0.5h32.7v22.2h-1.5
		c-1.1-10.4-3.1-20.3-10.6-20.3h-6.7v29.4l3.1-0.1c4.2-0.3,5.8-3.9,6.8-12.4h1.5v27.1h-1.5c-0.9-10.6-2.5-12.3-6.9-12.6l-3-0.1
		L452.8,65.7L452.8,65.7z M496.4,61.5c0,3,0.9,3.6,2.8,4.1l3,0.7v1.4h-20.1v-1.4l2.5-0.6c1.9-0.5,2.8-1.5,2.8-4.2V2.4h-2.1
		c-6,0-8.5,9.9-9.2,20.3h-1.5V0.5h34.4v22.2h-1.5c-0.7-10.4-3.1-20.3-9.2-20.3h-2.1V61.5z M550,52.2c0,10.4-5.3,15.9-13.4,15.9
		c-7.3,0-11.6-5.9-11.5-12.5c0.1-5.1,3.8-7.6,6.8-7.2c2.1,0.3,4.3,1.9,4,5.3c-0.3,4.9-5.6,4.7-5.8,7.7c-0.2,1.9,2.2,4.6,5.4,4.6
		c5.5,0,5.5-6.9,5.5-12.2V6.4c0-2.7-0.9-3.5-3-4l-2.4-0.6V0.5h19.2v1.4l-2.1,0.6c-2,0.5-2.6,1.4-2.6,4.1L550,52.2L550,52.2z
		 M572.7,68.2c-11.4,0-17-15.4-17-34.1c0-18.6,5.4-34,17-34c11.5,0,17.1,15.4,17.1,34C589.8,52.8,584.5,68.2,572.7,68.2z M572.7,2.2
		c-4.9,0-7.3,3.9-7.3,31.4c0,28.4,2.2,32.4,7.3,32.4c5.1,0,7.4-4,7.4-32.6C580.1,6.1,577.8,2.2,572.7,2.2z M628.4,66.3l2.1-0.6
		c2-0.5,2.8-1.5,2.8-4.2v-55c0-3.2-1.5-4.4-4.9-4.4c-4.3,0-5.4,2-5.4,7.5V52c0,10.5-3.7,16.2-12.8,16.2c-9.4,0-14.8-5.7-14.8-15.9
		V6.5c0-2.7-0.7-3.6-2.6-4.1l-2.1-0.6V0.5h19.4v1.4l-2.6,0.6c-2.1,0.5-3,1.3-3,4V53c0,9.5,2.7,11.9,7.7,11.9c5.9,0,8.3-3.3,8.3-12.9
		V13.2c0-8.2-0.1-10.1-3.6-10.9l-1.9-0.4V0.5h32c8.3,0,16,5.3,16,16.3c0,8.5-4,14.4-12.1,16.6c8.9,1.7,8.9,5.9,9.8,17.1l0.6,8.6
		c0.3,4.8,0.5,5.9,1.9,5.9c1.5,0,2-3.3,2-6.5v-1.7h1.7v2.2c0,5.4-1.2,9.2-6.7,9.2c-5.5,0-8-3.1-8.4-14.3l-0.5-12.5
		c-0.2-6-1.7-6.8-4.5-6.8h-4.6v27.1c0,2.7,0.9,3.8,2.8,4.3l2.1,0.5v1.4h-18.7L628.4,66.3L628.4,66.3L628.4,66.3z M642.2,32.5h3.2
		c5.5,0,8.2-1.5,8.2-14.4S650,2.4,646.1,2.4h-3.9V32.5z M668.6,2.2l-1.4-0.4V0.5H680l17.5,44.3V12.9c0-7.2,0.2-9.8-5-10.6l-1.7-0.4
		V0.5h14.4v1.4l-1.4,0.4c-4.2,1-3.9,4.4-3.9,11.2v54.2h-3.1L675,13.9v41.4c0,7.9,0,10.1,6.2,11v1.4h-14v-1.4L669,66
		c3.6-0.7,3.5-4.2,3.5-11.3V8.1C670.8,4.7,670.2,2.8,668.6,2.2z M754.4,65.7h3.9c8.3,0,10.7-9.9,11.7-20.3h1.5v22.2h-49.7v-1.4
		l2-0.4c4.2-0.8,4.3-1.9,3.1-7.8l-1.9-8.8h-12l-1.3,6.6c-1.5,7.5-0.7,9.4,2.2,9.9l2,0.4v1.4h-13.6v-1.4l1.7-0.5
		c2.6-0.8,3.3-2.3,4.7-9l11.9-56.8h2.9l12.5,58.6c1.3,6,1.8,7.3,5.3,7.3c3,0,4.1-1.6,4.1-4.5v-55c0-2.7-0.9-3.6-2.8-4.1l-2.1-0.6
		V0.5h19.3V2l-2.6,0.6c-2,0.4-2.8,1.3-2.8,4L754.4,65.7L754.4,65.7z M713.5,47.1h11.1l-5.7-27.7L713.5,47.1z M783,63.4
		c0,2.6-2,4.6-4.3,4.6s-4.3-2-4.3-4.6c0-2.6,2-4.6,4.3-4.6S783,60.8,783,63.4z"/>
</g>
</svg>
